<svg width="49" height="50" viewBox="0 0 49 50" fill="none" xmlns="http://www.w3.org/2000/svg">
<path d="M41.5233 7.9209C39.3077 5.68289 36.6686 3.90843 33.7601 2.70103C30.8515 1.49362 27.7316 0.877433 24.5824 0.888404C11.3874 0.888404 0.633275 11.6426 0.633275 24.8376C0.633275 29.0667 1.74494 33.1751 3.82328 36.8001L0.439941 49.2217L13.1274 45.8867C16.6316 47.7959 20.5708 48.8109 24.5824 48.8109C37.7774 48.8109 48.5316 38.0567 48.5316 24.8617C48.5316 18.4576 46.0424 12.4401 41.5233 7.9209ZM24.5824 44.7509C21.0058 44.7509 17.5016 43.7842 14.4324 41.9717L13.7074 41.5367L6.16744 43.5184L8.17327 36.1717L7.68994 35.4226C5.70283 32.2494 4.6477 28.5816 4.64494 24.8376C4.64494 13.8659 13.5866 4.92424 24.5583 4.92424C29.8749 4.92424 34.8774 7.00257 38.6233 10.7726C40.478 12.6188 41.9479 14.8148 42.9476 17.2333C43.9474 19.6519 44.4572 22.2448 44.4474 24.8617C44.4958 35.8334 35.5541 44.7509 24.5824 44.7509ZM35.5058 29.8642C34.9016 29.5742 31.9533 28.1242 31.4216 27.9067C30.8658 27.7134 30.4791 27.6167 30.0683 28.1967C29.6574 28.8009 28.5216 30.1542 28.1833 30.5409C27.8449 30.9517 27.4824 31.0001 26.8783 30.6859C26.2741 30.3959 24.3408 29.7434 22.0691 27.7134C20.2808 26.1184 19.0966 24.1609 18.7341 23.5567C18.3958 22.9526 18.6858 22.6384 18.9999 22.3242C19.2658 22.0584 19.6041 21.6234 19.8941 21.2851C20.1841 20.9467 20.3049 20.6809 20.4983 20.2942C20.6916 19.8834 20.5949 19.5451 20.4499 19.2551C20.3049 18.9651 19.0966 16.0167 18.6133 14.8084C18.1299 13.6484 17.6224 13.7934 17.2599 13.7692H16.0999C15.6891 13.7692 15.0608 13.9142 14.5049 14.5184C13.9733 15.1226 12.4266 16.5726 12.4266 19.5209C12.4266 22.4692 14.5774 25.3209 14.8674 25.7076C15.1574 26.1184 19.0966 32.1601 25.0899 34.7459C26.5158 35.3742 27.6274 35.7367 28.4974 36.0026C29.9233 36.4617 31.2283 36.3892 32.2674 36.2442C33.4274 36.0751 35.8199 34.7942 36.3033 33.3926C36.8108 31.9909 36.8108 30.8067 36.6416 30.5409C36.4724 30.2751 36.1099 30.1542 35.5058 29.8642Z" fill="#949494"/>
</svg>
